<?xml version="1.0" encoding="UTF-8" standalone="no"?>
<!DOCTYPE svg PUBLIC "-//W3C//DTD SVG 1.1//EN"
 "http://www.w3.org/Graphics/SVG/1.1/DTD/svg11.dtd">
<!-- Generated by graphviz version 2.40.1 (20161225.0304)
 -->
<!-- Title: dependencies Pages: 1 -->
<svg width="874pt" height="284pt"
 viewBox="0.00 0.00 874.00 284.00" xmlns="http://www.w3.org/2000/svg" xmlns:xlink="http://www.w3.org/1999/xlink">
<g id="graph0" class="graph" transform="scale(1 1) rotate(0) translate(4 280)">
<title>dependencies</title>
<polygon fill="#ffffff" stroke="transparent" points="-4,4 -4,-280 870,-280 870,4 -4,4"/>
<text text-anchor="start" x="412.0091" y="-42.4" font-family="sans-serif" font-weight="bold" font-size="14.00" fill="#000000">Legend</text>
<polygon fill="#ffffb3" stroke="transparent" points="199,-10 199,-30 219,-30 219,-10 199,-10"/>
<text text-anchor="start" x="222.629" y="-15.4" font-family="sans-serif" font-size="14.00" fill="#000000"> &#160;Declarations</text>
<polygon fill="#8dd3c7" stroke="transparent" points="312,-10 312,-30 332,-30 332,-10 312,-10"/>
<text text-anchor="start" x="335.7251" y="-15.4" font-family="sans-serif" font-size="14.00" fill="#000000"> &#160;Module</text>
<polygon fill="#80b1d3" stroke="transparent" points="398,-10 398,-30 418,-30 418,-10 398,-10"/>
<text text-anchor="start" x="421.7812" y="-15.4" font-family="sans-serif" font-size="14.00" fill="#000000"> &#160;Bootstrap</text>
<polygon fill="#fdb462" stroke="transparent" points="495,-10 495,-30 515,-30 515,-10 495,-10"/>
<text text-anchor="start" x="518.6732" y="-15.4" font-family="sans-serif" font-size="14.00" fill="#000000"> &#160;Providers</text>
<polygon fill="#fb8072" stroke="transparent" points="591,-10 591,-30 611,-30 611,-10 591,-10"/>
<text text-anchor="start" x="614.7258" y="-15.4" font-family="sans-serif" font-size="14.00" fill="#000000"> &#160;Exports</text>
<g id="clust1" class="cluster">
<title>cluster_AppModule</title>
<polygon fill="none" stroke="#000000" stroke-dasharray="1,5" points="8,-70 8,-268 858,-268 858,-70 8,-70"/>
</g>
<g id="clust2" class="cluster">
<title>cluster_AppModule_declarations</title>
<polygon fill="none" stroke="#000000" points="168,-78 168,-130 850,-130 850,-78 168,-78"/>
</g>
<g id="clust8" class="cluster">
<title>cluster_AppModule_imports</title>
<polygon fill="none" stroke="#000000" points="16,-78 16,-130 160,-130 160,-78 16,-78"/>
</g>
<g id="clust10" class="cluster">
<title>cluster_AppModule_bootstrap</title>
<polygon fill="none" stroke="#000000" points="386,-208 386,-260 510,-260 510,-208 386,-208"/>
</g>
<!-- AppComponent -->
<g id="node1" class="node">
<title>AppComponent</title>
<polygon fill="#ffffb3" stroke="#000000" points="841.9399,-122 736.0601,-122 736.0601,-86 841.9399,-86 841.9399,-122"/>
<text text-anchor="middle" x="789" y="-99.8" font-family="Times,serif" font-size="14.00" fill="#000000">AppComponent</text>
</g>
<!-- AppModule -->
<g id="node6" class="node">
<title>AppModule</title>
<polygon fill="#8dd3c7" stroke="#000000" points="489.6571,-187 486.6571,-191 465.6571,-191 462.6571,-187 406.3429,-187 406.3429,-151 489.6571,-151 489.6571,-187"/>
<text text-anchor="middle" x="448" y="-164.8" font-family="Times,serif" font-size="14.00" fill="#000000">AppModule</text>
</g>
<!-- AppComponent&#45;&gt;AppModule -->
<g id="edge1" class="edge">
<title>AppComponent&#45;&gt;AppModule</title>
<path fill="none" stroke="#000000" d="M789,-122.2843C789,-143.3211 789,-175 789,-175 789,-175 499.8133,-175 499.8133,-175"/>
<polygon fill="#000000" stroke="#000000" points="499.8133,-171.5001 489.8133,-175 499.8133,-178.5001 499.8133,-171.5001"/>
</g>
<!-- CatalogComponent -->
<g id="node2" class="node">
<title>CatalogComponent</title>
<polygon fill="#ffffb3" stroke="#000000" points="718.3795,-122 593.6205,-122 593.6205,-86 718.3795,-86 718.3795,-122"/>
<text text-anchor="middle" x="656" y="-99.8" font-family="Times,serif" font-size="14.00" fill="#000000">CatalogComponent</text>
</g>
<!-- CatalogComponent&#45;&gt;AppModule -->
<g id="edge2" class="edge">
<title>CatalogComponent&#45;&gt;AppModule</title>
<path fill="none" stroke="#000000" d="M656,-122.0225C656,-139.3734 656,-163 656,-163 656,-163 500.0919,-163 500.0919,-163"/>
<polygon fill="#000000" stroke="#000000" points="500.0919,-159.5001 490.0919,-163 500.0919,-166.5001 500.0919,-159.5001"/>
</g>
<!-- FooterComponent -->
<g id="node3" class="node">
<title>FooterComponent</title>
<polygon fill="#ffffb3" stroke="#000000" points="575.8809,-122 458.1191,-122 458.1191,-86 575.8809,-86 575.8809,-122"/>
<text text-anchor="middle" x="517" y="-99.8" font-family="Times,serif" font-size="14.00" fill="#000000">FooterComponent</text>
</g>
<!-- FooterComponent&#45;&gt;AppModule -->
<g id="edge3" class="edge">
<title>FooterComponent&#45;&gt;AppModule</title>
<path fill="none" stroke="#000000" d="M473.9439,-122.1061C473.9439,-122.1061 473.9439,-140.991 473.9439,-140.991"/>
<polygon fill="#000000" stroke="#000000" points="470.444,-140.9909 473.9439,-150.991 477.444,-140.991 470.444,-140.9909"/>
</g>
<!-- HeaderComponent -->
<g id="node4" class="node">
<title>HeaderComponent</title>
<polygon fill="#ffffb3" stroke="#000000" points="439.7437,-122 318.2563,-122 318.2563,-86 439.7437,-86 439.7437,-122"/>
<text text-anchor="middle" x="379" y="-99.8" font-family="Times,serif" font-size="14.00" fill="#000000">HeaderComponent</text>
</g>
<!-- HeaderComponent&#45;&gt;AppModule -->
<g id="edge4" class="edge">
<title>HeaderComponent&#45;&gt;AppModule</title>
<path fill="none" stroke="#000000" d="M423.0218,-122.1061C423.0218,-122.1061 423.0218,-140.991 423.0218,-140.991"/>
<polygon fill="#000000" stroke="#000000" points="419.5218,-140.9909 423.0218,-150.991 426.5218,-140.991 419.5218,-140.9909"/>
</g>
<!-- ProductComponent -->
<g id="node5" class="node">
<title>ProductComponent</title>
<polygon fill="#ffffb3" stroke="#000000" points="300.3809,-122 175.6191,-122 175.6191,-86 300.3809,-86 300.3809,-122"/>
<text text-anchor="middle" x="238" y="-99.8" font-family="Times,serif" font-size="14.00" fill="#000000">ProductComponent</text>
</g>
<!-- ProductComponent&#45;&gt;AppModule -->
<g id="edge5" class="edge">
<title>ProductComponent&#45;&gt;AppModule</title>
<path fill="none" stroke="#000000" d="M238,-122.0225C238,-139.3734 238,-163 238,-163 238,-163 396.2597,-163 396.2597,-163"/>
<polygon fill="#000000" stroke="#000000" points="396.2597,-166.5001 406.2597,-163 396.2596,-159.5001 396.2597,-166.5001"/>
</g>
<!-- AppComponent  -->
<g id="node8" class="node">
<title>AppComponent </title>
<polygon fill="#80b1d3" stroke="#000000" points="502.439,-252 393.561,-252 393.561,-216 502.439,-216 502.439,-252"/>
<text text-anchor="middle" x="448" y="-229.8" font-family="Times,serif" font-size="14.00" fill="#000000">AppComponent </text>
</g>
<!-- AppModule&#45;&gt;AppComponent  -->
<g id="edge7" class="edge">
<title>AppModule&#45;&gt;AppComponent </title>
<path fill="none" stroke="#000000" stroke-dasharray="1,5" d="M448,-187.1061C448,-187.1061 448,-205.991 448,-205.991"/>
<polygon fill="#000000" stroke="#000000" points="444.5001,-205.9909 448,-215.991 451.5001,-205.991 444.5001,-205.9909"/>
</g>
<!-- AppRoutingModule -->
<g id="node7" class="node">
<title>AppRoutingModule</title>
<polygon fill="#8dd3c7" stroke="#000000" points="152.2744,-122 149.2744,-126 128.2744,-126 125.2744,-122 23.7256,-122 23.7256,-86 152.2744,-86 152.2744,-122"/>
<text text-anchor="middle" x="88" y="-99.8" font-family="Times,serif" font-size="14.00" fill="#000000">AppRoutingModule</text>
</g>
<!-- AppRoutingModule&#45;&gt;AppModule -->
<g id="edge6" class="edge">
<title>AppRoutingModule&#45;&gt;AppModule</title>
<path fill="none" stroke="#000000" d="M88,-122.2843C88,-143.3211 88,-175 88,-175 88,-175 395.9989,-175 395.9989,-175"/>
<polygon fill="#000000" stroke="#000000" points="395.9989,-178.5001 405.9989,-175 395.9988,-171.5001 395.9989,-178.5001"/>
</g>
</g>
</svg>
