<?xml version="1.0" encoding="UTF-8" standalone="no"?>
<!DOCTYPE svg PUBLIC "-//W3C//DTD SVG 1.1//EN"
 "http://www.w3.org/Graphics/SVG/1.1/DTD/svg11.dtd">
<!-- Generated by graphviz version 2.40.1 (20161225.0304)
 -->
<!-- Title: dependencies Pages: 1 -->
<svg width="866pt" height="284pt"
 viewBox="0.00 0.00 866.00 284.00" xmlns="http://www.w3.org/2000/svg" xmlns:xlink="http://www.w3.org/1999/xlink">
<g id="graph0" class="graph" transform="scale(1 1) rotate(0) translate(4 280)">
<title>dependencies</title>
<polygon fill="#ffffff" stroke="transparent" points="-4,4 -4,-280 862,-280 862,4 -4,4"/>
<text text-anchor="start" x="408.0091" y="-42.4" font-family="sans-serif" font-weight="bold" font-size="14.00" fill="#000000">Legend</text>
<polygon fill="#ffffb3" stroke="transparent" points="195,-10 195,-30 215,-30 215,-10 195,-10"/>
<text text-anchor="start" x="218.629" y="-15.4" font-family="sans-serif" font-size="14.00" fill="#000000"> &#160;Declarations</text>
<polygon fill="#8dd3c7" stroke="transparent" points="308,-10 308,-30 328,-30 328,-10 308,-10"/>
<text text-anchor="start" x="331.7251" y="-15.4" font-family="sans-serif" font-size="14.00" fill="#000000"> &#160;Module</text>
<polygon fill="#80b1d3" stroke="transparent" points="394,-10 394,-30 414,-30 414,-10 394,-10"/>
<text text-anchor="start" x="417.7812" y="-15.4" font-family="sans-serif" font-size="14.00" fill="#000000"> &#160;Bootstrap</text>
<polygon fill="#fdb462" stroke="transparent" points="491,-10 491,-30 511,-30 511,-10 491,-10"/>
<text text-anchor="start" x="514.6732" y="-15.4" font-family="sans-serif" font-size="14.00" fill="#000000"> &#160;Providers</text>
<polygon fill="#fb8072" stroke="transparent" points="587,-10 587,-30 607,-30 607,-10 587,-10"/>
<text text-anchor="start" x="610.7258" y="-15.4" font-family="sans-serif" font-size="14.00" fill="#000000"> &#160;Exports</text>
<g id="clust1" class="cluster">
<title>cluster_AppModule</title>
<polygon fill="none" stroke="#000000" stroke-dasharray="1,5" points="8,-70 8,-268 850,-268 850,-70 8,-70"/>
</g>
<g id="clust2" class="cluster">
<title>cluster_AppModule_declarations</title>
<polygon fill="none" stroke="#000000" points="168,-78 168,-130 842,-130 842,-78 168,-78"/>
</g>
<g id="clust8" class="cluster">
<title>cluster_AppModule_imports</title>
<polygon fill="none" stroke="#000000" points="16,-78 16,-130 160,-130 160,-78 16,-78"/>
</g>
<g id="clust10" class="cluster">
<title>cluster_AppModule_bootstrap</title>
<polygon fill="none" stroke="#000000" points="382,-208 382,-260 506,-260 506,-208 382,-208"/>
</g>
<!-- AppComponent -->
<g id="node1" class="node">
<title>AppComponent</title>
<polygon fill="#ffffb3" stroke="#000000" points="833.9399,-122 728.0601,-122 728.0601,-86 833.9399,-86 833.9399,-122"/>
<text text-anchor="middle" x="781" y="-99.8" font-family="Times,serif" font-size="14.00" fill="#000000">AppComponent</text>
</g>
<!-- AppModule -->
<g id="node6" class="node">
<title>AppModule</title>
<polygon fill="#8dd3c7" stroke="#000000" points="485.6571,-187 482.6571,-191 461.6571,-191 458.6571,-187 402.3429,-187 402.3429,-151 485.6571,-151 485.6571,-187"/>
<text text-anchor="middle" x="444" y="-164.8" font-family="Times,serif" font-size="14.00" fill="#000000">AppModule</text>
</g>
<!-- AppComponent&#45;&gt;AppModule -->
<g id="edge1" class="edge">
<title>AppComponent&#45;&gt;AppModule</title>
<path fill="none" stroke="#000000" d="M781,-122.2843C781,-143.3211 781,-175 781,-175 781,-175 495.6608,-175 495.6608,-175"/>
<polygon fill="#000000" stroke="#000000" points="495.6608,-171.5001 485.6608,-175 495.6608,-178.5001 495.6608,-171.5001"/>
</g>
<!-- FooterComponent -->
<g id="node2" class="node">
<title>FooterComponent</title>
<polygon fill="#ffffb3" stroke="#000000" points="709.8809,-122 592.1191,-122 592.1191,-86 709.8809,-86 709.8809,-122"/>
<text text-anchor="middle" x="651" y="-99.8" font-family="Times,serif" font-size="14.00" fill="#000000">FooterComponent</text>
</g>
<!-- FooterComponent&#45;&gt;AppModule -->
<g id="edge2" class="edge">
<title>FooterComponent&#45;&gt;AppModule</title>
<path fill="none" stroke="#000000" d="M651,-122.0225C651,-139.3734 651,-163 651,-163 651,-163 495.8895,-163 495.8895,-163"/>
<polygon fill="#000000" stroke="#000000" points="495.8896,-159.5001 485.8895,-163 495.8895,-166.5001 495.8896,-159.5001"/>
</g>
<!-- HeaderComponent -->
<g id="node3" class="node">
<title>HeaderComponent</title>
<polygon fill="#ffffb3" stroke="#000000" points="573.7437,-122 452.2563,-122 452.2563,-86 573.7437,-86 573.7437,-122"/>
<text text-anchor="middle" x="513" y="-99.8" font-family="Times,serif" font-size="14.00" fill="#000000">HeaderComponent</text>
</g>
<!-- HeaderComponent&#45;&gt;AppModule -->
<g id="edge3" class="edge">
<title>HeaderComponent&#45;&gt;AppModule</title>
<path fill="none" stroke="#000000" d="M468.9783,-122.1061C468.9783,-122.1061 468.9783,-140.991 468.9783,-140.991"/>
<polygon fill="#000000" stroke="#000000" points="465.4783,-140.9909 468.9783,-150.991 472.4783,-140.991 465.4783,-140.9909"/>
</g>
<!-- HomeComponent -->
<g id="node4" class="node">
<title>HomeComponent</title>
<polygon fill="#ffffb3" stroke="#000000" points="433.5451,-122 318.4549,-122 318.4549,-86 433.5451,-86 433.5451,-122"/>
<text text-anchor="middle" x="376" y="-99.8" font-family="Times,serif" font-size="14.00" fill="#000000">HomeComponent</text>
</g>
<!-- HomeComponent&#45;&gt;AppModule -->
<g id="edge4" class="edge">
<title>HomeComponent&#45;&gt;AppModule</title>
<path fill="none" stroke="#000000" d="M417.972,-122.1061C417.972,-122.1061 417.972,-140.991 417.972,-140.991"/>
<polygon fill="#000000" stroke="#000000" points="414.472,-140.9909 417.972,-150.991 421.472,-140.991 414.472,-140.9909"/>
</g>
<!-- ProductComponent -->
<g id="node5" class="node">
<title>ProductComponent</title>
<polygon fill="#ffffb3" stroke="#000000" points="300.3809,-122 175.6191,-122 175.6191,-86 300.3809,-86 300.3809,-122"/>
<text text-anchor="middle" x="238" y="-99.8" font-family="Times,serif" font-size="14.00" fill="#000000">ProductComponent</text>
</g>
<!-- ProductComponent&#45;&gt;AppModule -->
<g id="edge5" class="edge">
<title>ProductComponent&#45;&gt;AppModule</title>
<path fill="none" stroke="#000000" d="M238,-122.0225C238,-139.3734 238,-163 238,-163 238,-163 392.3128,-163 392.3128,-163"/>
<polygon fill="#000000" stroke="#000000" points="392.3129,-166.5001 402.3128,-163 392.3128,-159.5001 392.3129,-166.5001"/>
</g>
<!-- AppComponent  -->
<g id="node8" class="node">
<title>AppComponent </title>
<polygon fill="#80b1d3" stroke="#000000" points="498.439,-252 389.561,-252 389.561,-216 498.439,-216 498.439,-252"/>
<text text-anchor="middle" x="444" y="-229.8" font-family="Times,serif" font-size="14.00" fill="#000000">AppComponent </text>
</g>
<!-- AppModule&#45;&gt;AppComponent  -->
<g id="edge7" class="edge">
<title>AppModule&#45;&gt;AppComponent </title>
<path fill="none" stroke="#000000" stroke-dasharray="1,5" d="M444,-187.1061C444,-187.1061 444,-205.991 444,-205.991"/>
<polygon fill="#000000" stroke="#000000" points="440.5001,-205.9909 444,-215.991 447.5001,-205.991 440.5001,-205.9909"/>
</g>
<!-- AppRoutingModule -->
<g id="node7" class="node">
<title>AppRoutingModule</title>
<polygon fill="#8dd3c7" stroke="#000000" points="152.2744,-122 149.2744,-126 128.2744,-126 125.2744,-122 23.7256,-122 23.7256,-86 152.2744,-86 152.2744,-122"/>
<text text-anchor="middle" x="88" y="-99.8" font-family="Times,serif" font-size="14.00" fill="#000000">AppRoutingModule</text>
</g>
<!-- AppRoutingModule&#45;&gt;AppModule -->
<g id="edge6" class="edge">
<title>AppRoutingModule&#45;&gt;AppModule</title>
<path fill="none" stroke="#000000" d="M88,-122.2843C88,-143.3211 88,-175 88,-175 88,-175 392.1154,-175 392.1154,-175"/>
<polygon fill="#000000" stroke="#000000" points="392.1155,-178.5001 402.1154,-175 392.1154,-171.5001 392.1155,-178.5001"/>
</g>
</g>
</svg>
